<?xml version="1.0" encoding="UTF-8" standalone="no"?>
<svg
   xmlns:dc="http://purl.org/dc/elements/1.1/"
   xmlns:cc="http://creativecommons.org/ns#"
   xmlns:rdf="http://www.w3.org/1999/02/22-rdf-syntax-ns#"
   xmlns:svg="http://www.w3.org/2000/svg"
   xmlns="http://www.w3.org/2000/svg"
   xml:space="preserve"
   style="enable-background:new 0 0 59.001 59.001;"
   viewBox="0 0 59.001 59.001"
   y="0px"
   x="0px"
   id="Capa_1"
   version="1.1"><metadata
   id="metadata49"><rdf:RDF><cc:Work
       rdf:about=""><dc:format>image/svg+xml</dc:format><dc:type
         rdf:resource="http://purl.org/dc/dcmitype/StillImage" /><dc:title></dc:title></cc:Work></rdf:RDF></metadata><defs
   id="defs47">
	
	
	
	
	
</defs>
<path
   style="fill:#cb4f24;fill-opacity:1"
   d="M 58.693,53.636 46.848,33.33 c -0.405,-0.695 -1.128,-1.11 -1.933,-1.11 -0.805,0 -1.528,0.415 -1.933,1.11 L 31.137,53.636 c -0.409,0.7 -0.412,1.539 -0.008,2.242 0.404,0.703 1.129,1.123 1.94,1.123 H 56.76 c 0.811,0 1.536,-0.42 1.939,-1.123 0.405,-0.703 0.403,-1.541 -0.006,-2.242 z m -1.727,1.246 c -0.03,0.055 -0.092,0.119 -0.205,0.119 H 33.07 c -0.114,0 -0.175,-0.064 -0.206,-0.119 -0.031,-0.055 -0.056,-0.14 0.001,-0.238 L 44.71,34.338 c 0.057,-0.098 0.143,-0.118 0.206,-0.118 0.062,0 0.148,0.021 0.205,0.118 l 11.845,20.306 c 0.056,0.098 0.032,0.183 0,0.238 z"
   id="path2" /><path
   style="fill:#cb4f24;fill-opacity:1"
   d="m 45,39.001 c -0.552,0 -1,0.447 -1,1 v 8 c 0,0.553 0.448,1 1,1 0.552,0 1,-0.447 1,-1 v -8 c 0,-0.553 -0.448,-1 -1,-1 z"
   id="path4" /><path
   style="fill:#cb4f24;fill-opacity:1"
   d="M 44.29,51.291 C 44.11,51.48 44,51.74 44,52.001 c 0,0.26 0.11,0.52 0.29,0.7 0.18,0.189 0.44,0.3 0.71,0.3 0.27,0 0.52,-0.11 0.7,-0.29 0.19,-0.19 0.3,-0.44 0.3,-0.71 0,-0.271 -0.11,-0.521 -0.29,-0.71 -0.37,-0.37 -1.05,-0.37 -1.42,0 z"
   id="path6" /><path
   style="fill:#002533;fill-opacity:1"
   d="m 52,6.001 c 0,-0.552 -0.448,-1 -1,-1 h -5 v -3 c 0,-0.553 -0.448,-1 -1,-1 h -7 c -0.552,0 -1,0.447 -1,1 v 3 H 15 v -3 c 0,-0.553 -0.448,-1 -1,-1 H 7 c -0.552,0 -1,0.447 -1,1 v 3 H 1 c -0.552,0 -1,0.448 -1,1 v 9 h 52 z m -39,0 v 3 H 8 v -3 -3 h 5 z m 31,0 v 3 h -5 v -3 -3 h 5 z"
   id="path8" /><path
   style="fill:#00384e;fill-opacity:1"
   d="M 28.546,52.124 40.391,31.818 c 0.173,-0.297 0.381,-0.565 0.605,-0.817 H 40.486 37 v -8 h 8 v 6.224 c 1.825,0.03 3.52,1.015 4.44,2.595 L 52,36.208 V 31.179 18.001 c 0,-0.553 -0.448,-1 -1,-1 H 1 c -0.552,0 -1,0.447 -1,1 v 39 c 0,0.553 0.448,1 1,1 h 27.958 c -0.156,-0.198 -0.302,-0.406 -0.43,-0.629 -0.931,-1.622 -0.924,-3.633 0.018,-5.248 z M 15,51.001 H 7 v -8 h 8 z m 0,-10 H 7 v -8 h 8 z m 0,-10 H 7 v -8 h 8 z m 10,20 h -7 -1 v -8 h 8 z m 0,-10 h -8 v -8 h 8 z m 0,-10 h -8 v -8 h 1 7 z m 2,-8 h 7 1 v 8 h -8 z"
   id="path10" />
<g
   id="g14">
</g>
<g
   id="g16">
</g>
<g
   id="g18">
</g>
<g
   id="g20">
</g>
<g
   id="g22">
</g>
<g
   id="g24">
</g>
<g
   id="g26">
</g>
<g
   id="g28">
</g>
<g
   id="g30">
</g>
<g
   id="g32">
</g>
<g
   id="g34">
</g>
<g
   id="g36">
</g>
<g
   id="g38">
</g>
<g
   id="g40">
</g>
<g
   id="g42">
</g>
</svg>